<svg id="Layer_1" data-name="Layer 1" xmlns="http://www.w3.org/2000/svg" xmlns:xlink="http://www.w3.org/1999/xlink" viewBox="0 0 1308.83 681.5"><defs><style>.cls-1{fill:#2c2e53;}.cls-2,.cls-9{fill:#fff;}.cls-2{stroke:#e2e2e2;stroke-miterlimit:10;stroke-width:2px;}.cls-3{fill:#4768b1;}.cls-4{fill:#231f20;}.cls-5{fill:#a8a9bd;}.cls-6{fill:#666790;}.cls-7{fill:#34bcc9;}.cls-8{isolation:isolate;}.cls-10{fill:url(#linear-gradient);}.cls-11{fill:url(#linear-gradient-2);}</style><linearGradient id="linear-gradient" x1="363.23" y1="352.14" x2="428.15" y2="352.14" gradientUnits="userSpaceOnUse"><stop offset="0" stop-color="#4668b1"/><stop offset="1" stop-color="#31bcc9"/></linearGradient><linearGradient id="linear-gradient-2" x1="384.57" y1="308.59" x2="418.87" y2="308.59" xlink:href="#linear-gradient"/></defs><rect class="cls-1" x="24.16" y="86.65" width="1257.05" height="508.53" rx="14.26"/><rect class="cls-2" x="130.94" y="25.37" width="1043.5" height="631.1" rx="14.26"/><circle class="cls-3" cx="725.12" cy="207.59" r="9.4"/><path class="cls-4" d="M763.12,210v7h-4.06V197.25h7.7a9,9,0,0,1,3.91.81,6,6,0,0,1,2.59,2.31,6.42,6.42,0,0,1,.91,3.41,5.68,5.68,0,0,1-2,4.58,8.32,8.32,0,0,1-5.5,1.67Zm0-3.29h3.64a3.62,3.62,0,0,0,2.46-.76,2.79,2.79,0,0,0,.85-2.17,3.27,3.27,0,0,0-.86-2.35,3.21,3.21,0,0,0-2.36-.92h-3.73Z"/><path class="cls-4" d="M785.49,215.49a4.89,4.89,0,0,1-4,1.77,4.66,4.66,0,0,1-3.6-1.36,5.78,5.78,0,0,1-1.27-4v-9.61h3.92v9.48c0,1.53.7,2.3,2.09,2.3a2.82,2.82,0,0,0,2.74-1.39V202.32h3.93V217H785.6Z"/><path class="cls-4" d="M805.46,209.79a8.87,8.87,0,0,1-1.5,5.49,5,5,0,0,1-4.2,2,4.58,4.58,0,0,1-3.81-1.83l-.18,1.56h-3.52V196.16h3.91v7.47a4.47,4.47,0,0,1,3.57-1.58,5,5,0,0,1,4.21,2,8.85,8.85,0,0,1,1.52,5.55Zm-3.91-.29a5.8,5.8,0,0,0-.71-3.24,2.37,2.37,0,0,0-2.1-1,2.59,2.59,0,0,0-2.58,1.53v5.79a2.63,2.63,0,0,0,2.61,1.55,2.43,2.43,0,0,0,2.49-1.87A9.66,9.66,0,0,0,801.55,209.5Z"/><path class="cls-4" d="M812,217h-3.93V196.16H812Z"/><path class="cls-4" d="M815.21,198.52a1.94,1.94,0,0,1,.59-1.45,2.54,2.54,0,0,1,3.21,0,2.08,2.08,0,0,1,0,2.91,2.21,2.21,0,0,1-1.59.57,2.25,2.25,0,0,1-1.6-.57A1.9,1.9,0,0,1,815.21,198.52ZM819.37,217h-3.93V202.32h3.93Z"/><path class="cls-4" d="M828.7,214.1a2.56,2.56,0,0,0,1.76-.6,2.08,2.08,0,0,0,.71-1.58h3.67a5.07,5.07,0,0,1-.81,2.73,5.32,5.32,0,0,1-2.19,1.92,6.82,6.82,0,0,1-3.07.69,6.37,6.37,0,0,1-5-2,7.9,7.9,0,0,1-1.82-5.53v-.26a7.81,7.81,0,0,1,1.8-5.4,6.28,6.28,0,0,1,5-2,6.16,6.16,0,0,1,4.41,1.56,5.55,5.55,0,0,1,1.69,4.17h-3.67a2.68,2.68,0,0,0-.71-1.86,2.61,2.61,0,0,0-3.85.28,5.77,5.77,0,0,0-.7,3.24v.41a5.87,5.87,0,0,0,.69,3.26A2.39,2.39,0,0,0,828.7,214.1Z"/><path class="cls-4" d="M854.49,211.81a2.07,2.07,0,0,0-.82-1.77,10.55,10.55,0,0,0-2.92-1.3,20.89,20.89,0,0,1-3.35-1.35c-2.25-1.21-3.37-2.85-3.37-4.9a4.7,4.7,0,0,1,.91-2.85,5.85,5.85,0,0,1,2.58-2,9.77,9.77,0,0,1,3.79-.71,8.88,8.88,0,0,1,3.77.77,6,6,0,0,1,2.57,2.16,5.67,5.67,0,0,1,.92,3.18H854.5a2.65,2.65,0,0,0-.85-2.11,3.52,3.52,0,0,0-2.4-.75,3.74,3.74,0,0,0-2.32.63,2,2,0,0,0-.83,1.66,1.89,1.89,0,0,0,1,1.61,11.22,11.22,0,0,0,2.85,1.22,12.37,12.37,0,0,1,5.06,2.59,5.14,5.14,0,0,1,1.59,3.85,4.75,4.75,0,0,1-1.94,4,8.49,8.49,0,0,1-5.22,1.46,10,10,0,0,1-4.15-.84,6.44,6.44,0,0,1-2.85-2.28,5.83,5.83,0,0,1-1-3.36h4.08c0,2.17,1.31,3.26,3.91,3.26a3.73,3.73,0,0,0,2.26-.59A1.9,1.9,0,0,0,854.49,211.81Z"/><path class="cls-4" d="M869.56,217a4.48,4.48,0,0,1-.39-1.32,4.73,4.73,0,0,1-3.7,1.59A5.2,5.2,0,0,1,861.9,216a4,4,0,0,1-1.42-3.15,4.17,4.17,0,0,1,1.73-3.58,8.54,8.54,0,0,1,5-1.26H869v-.84a2.44,2.44,0,0,0-.52-1.62,2.05,2.05,0,0,0-1.65-.61,2.3,2.3,0,0,0-1.55.47,1.61,1.61,0,0,0-.57,1.3H860.8a4,4,0,0,1,.79-2.36,5.28,5.28,0,0,1,2.22-1.7,8.16,8.16,0,0,1,3.23-.61,6.42,6.42,0,0,1,4.31,1.36,4.77,4.77,0,0,1,1.59,3.83v6.36a7.05,7.05,0,0,0,.58,3.16V217Zm-3.24-2.73a3.35,3.35,0,0,0,1.6-.39,2.53,2.53,0,0,0,1.09-1v-2.52h-1.47c-2,0-3,.67-3.13,2v.23a1.59,1.59,0,0,0,.51,1.21A2.05,2.05,0,0,0,866.32,214.26Z"/><path class="cls-4" d="M880.08,217h-3.93V196.16h3.93Z"/><path class="cls-4" d="M890.06,217.26a7.19,7.19,0,0,1-5.25-2,7.05,7.05,0,0,1-2-5.28v-.38a9,9,0,0,1,.85-4,6.3,6.3,0,0,1,2.42-2.68,6.81,6.81,0,0,1,3.58-.94,6.13,6.13,0,0,1,4.74,1.89,7.74,7.74,0,0,1,1.72,5.39v1.6h-9.34a3.66,3.66,0,0,0,1.15,2.3,3.46,3.46,0,0,0,2.42.87,4.24,4.24,0,0,0,3.54-1.64l1.92,2.15a6,6,0,0,1-2.38,1.95A8,8,0,0,1,890.06,217.26Zm-.45-12.06a2.49,2.49,0,0,0-1.89.79,4.16,4.16,0,0,0-.93,2.26h5.45v-.31a2.89,2.89,0,0,0-.7-2A2.51,2.51,0,0,0,889.61,205.2Z"/><path class="cls-4" d="M909.06,205.38h2.08a2.92,2.92,0,0,0,2.21-.75,2.7,2.7,0,0,0,.72-2,2.43,2.43,0,0,0-.71-1.86,2.77,2.77,0,0,0-2-.67,2.88,2.88,0,0,0-1.88.62,2,2,0,0,0-.76,1.61h-3.92a4.89,4.89,0,0,1,.83-2.78,5.67,5.67,0,0,1,2.33-1.91,7.82,7.82,0,0,1,3.31-.7,7.36,7.36,0,0,1,4.9,1.5A5.11,5.11,0,0,1,918,202.6a4.17,4.17,0,0,1-.83,2.5,5.33,5.33,0,0,1-2.17,1.74,4.93,4.93,0,0,1,2.49,1.79,4.85,4.85,0,0,1,.82,2.82,5.2,5.2,0,0,1-1.92,4.22,7.69,7.69,0,0,1-5.07,1.59,7.33,7.33,0,0,1-4.84-1.56,5.11,5.11,0,0,1-1.88-4.12h3.92a2.25,2.25,0,0,0,.84,1.81,3.06,3.06,0,0,0,2,.71,3.1,3.1,0,0,0,2.19-.74,2.55,2.55,0,0,0,.79-2q0-3-3.25-3h-2.07Z"/><path class="cls-4" d="M934.29,208.82a10,10,0,0,1-1.7,6.27,6.77,6.77,0,0,1-9.9,0A9.71,9.71,0,0,1,921,209v-3.64q0-4.12,1.71-6.27a6.77,6.77,0,0,1,9.88,0,9.66,9.66,0,0,1,1.75,6.09Zm-3.92-4a7.34,7.34,0,0,0-.67-3.58,2.29,2.29,0,0,0-2.1-1.12,2.23,2.23,0,0,0-2,1.07,6.77,6.77,0,0,0-.7,3.33v4.8a7.53,7.53,0,0,0,.66,3.59,2.23,2.23,0,0,0,2.11,1.18A2.19,2.19,0,0,0,929.7,213a7.36,7.36,0,0,0,.67-3.45Z"/><path class="cls-4" d="M936.88,201a3.93,3.93,0,0,1,1.17-2.95,4.85,4.85,0,0,1,6.21,0,4,4,0,0,1,1.18,3v1a3.84,3.84,0,0,1-1.18,2.94,4.87,4.87,0,0,1-6.2,0,3.94,3.94,0,0,1-1.18-3Zm2.6,1.05a1.78,1.78,0,0,0,.47,1.3,1.61,1.61,0,0,0,1.22.5,1.55,1.55,0,0,0,1.21-.5,1.94,1.94,0,0,0,.45-1.34v-1a1.88,1.88,0,0,0-.45-1.31,1.55,1.55,0,0,0-1.23-.5,1.58,1.58,0,0,0-1.21.49,1.93,1.93,0,0,0-.46,1.38ZM942,215.51l-1.92-1,9.64-15.43,1.91,1Zm4.36-3.36a3.86,3.86,0,0,1,1.19-3,4.33,4.33,0,0,1,3.09-1.12,4.42,4.42,0,0,1,3.12,1.1,4,4,0,0,1,1.18,3v1a3.92,3.92,0,0,1-1.16,2.94,4.89,4.89,0,0,1-6.24,0,3.91,3.91,0,0,1-1.18-3Zm2.6,1a1.86,1.86,0,0,0,.49,1.28,1.6,1.6,0,0,0,1.22.53c1.1,0,1.66-.61,1.66-1.83v-1a1.87,1.87,0,0,0-.46-1.31,1.61,1.61,0,0,0-1.23-.5,1.57,1.57,0,0,0-1.21.5,1.9,1.9,0,0,0-.47,1.35Z"/><path class="cls-4" d="M768,275.87a2.49,2.49,0,0,0-.61-1.77,5.67,5.67,0,0,0-2.1-1.22,24.88,24.88,0,0,1-2.55-1.1,8.43,8.43,0,0,1-1.83-1.26,5.17,5.17,0,0,1-1.2-1.68,5.68,5.68,0,0,1-.42-2.29,5.09,5.09,0,0,1,1.46-3.75,6.15,6.15,0,0,1,3.89-1.71v-2.9h2.17v2.94a5.69,5.69,0,0,1,3.76,2,6.6,6.6,0,0,1,1.35,4.3H768a3.73,3.73,0,0,0-.67-2.43,2.19,2.19,0,0,0-1.79-.81,2.27,2.27,0,0,0-1.72.63,2.41,2.41,0,0,0-.61,1.75,2.27,2.27,0,0,0,.59,1.65A6.65,6.65,0,0,0,766,269.5a24.17,24.17,0,0,1,2.66,1.22,7.66,7.66,0,0,1,1.76,1.3,5.07,5.07,0,0,1,1.1,1.66,5.55,5.55,0,0,1,.38,2.16,5.08,5.08,0,0,1-1.43,3.74,6.35,6.35,0,0,1-4,1.7V284h-2.16v-2.68a6.53,6.53,0,0,1-4.3-2,6.36,6.36,0,0,1-1.53-4.46h3.92a3.58,3.58,0,0,0,.77,2.48,2.8,2.8,0,0,0,2.2.86,2.69,2.69,0,0,0,1.88-.63A2.19,2.19,0,0,0,768,275.87Z"/><path class="cls-4" d="M789.84,264.61h-6v16.45h-4.07V264.61h-6v-3.29h16.07Z"/><path class="cls-4" d="M796.23,274.1v7h-4.07V261.32h7.7a9,9,0,0,1,3.92.81,6,6,0,0,1,2.59,2.32,6.36,6.36,0,0,1,.91,3.4,5.66,5.66,0,0,1-2,4.58,8.22,8.22,0,0,1-5.49,1.67Zm0-3.29h3.63a3.58,3.58,0,0,0,2.47-.76,2.77,2.77,0,0,0,.84-2.17,3.06,3.06,0,0,0-3.21-3.27h-3.73Z"/><path class="cls-4" d="M825.57,274.48a7,7,0,0,1-2.35,5,8.28,8.28,0,0,1-5.6,1.83,7.43,7.43,0,0,1-6-2.55,10.51,10.51,0,0,1-2.17-7v-1.21a11.79,11.79,0,0,1,1-5,7.46,7.46,0,0,1,2.87-3.33,8.95,8.95,0,0,1,9.83.67A7.49,7.49,0,0,1,825.6,268h-4.07a4.1,4.1,0,0,0-1.07-2.78,3.94,3.94,0,0,0-2.78-.86,3.48,3.48,0,0,0-3,1.46,8.22,8.22,0,0,0-1,4.52v1.49a8.69,8.69,0,0,0,1,4.68,3.37,3.37,0,0,0,3,1.48,4,4,0,0,0,2.82-.86,3.89,3.89,0,0,0,1.06-2.67Z"/><path class="cls-4" d="M839.22,277.79h8.64v3.27H835.15V261.32h4.07Z"/><path class="cls-4" d="M858.43,281.06a4.3,4.3,0,0,1-.39-1.32,4.73,4.73,0,0,1-3.7,1.59,5.15,5.15,0,0,1-3.57-1.25,4,4,0,0,1-1.42-3.14,4.12,4.12,0,0,1,1.73-3.58,8.52,8.52,0,0,1,5-1.26h1.81v-.84a2.42,2.42,0,0,0-.53-1.63,2,2,0,0,0-1.64-.61,2.35,2.35,0,0,0-1.56.48,1.62,1.62,0,0,0-.56,1.3h-3.92a4,4,0,0,1,.79-2.36,5.22,5.22,0,0,1,2.22-1.7,8.16,8.16,0,0,1,3.23-.62,6.37,6.37,0,0,1,4.3,1.36,4.76,4.76,0,0,1,1.6,3.83v6.36a7,7,0,0,0,.58,3.16v.23Zm-3.24-2.73a3.34,3.34,0,0,0,1.6-.38,2.61,2.61,0,0,0,1.09-1v-2.52h-1.47c-2,0-3,.68-3.13,2v.23a1.59,1.59,0,0,0,.51,1.21A2,2,0,0,0,855.19,278.33Z"/><path class="cls-4" d="M868.42,266.39l.13,1.7a5.11,5.11,0,0,1,4.21-2,4.26,4.26,0,0,1,3.47,1.37,6.39,6.39,0,0,1,1.17,4.09v9.48h-3.92v-9.38a2.54,2.54,0,0,0-.54-1.81,2.41,2.41,0,0,0-1.81-.56,2.71,2.71,0,0,0-2.48,1.41v10.34h-3.91V266.39Z"/><path class="cls-4" d="M879.76,273.62a8.84,8.84,0,0,1,1.54-5.47,5,5,0,0,1,4.21-2,4.48,4.48,0,0,1,3.53,1.6v-7.48H893v20.82h-3.54l-.19-1.56a4.61,4.61,0,0,1-3.77,1.83,5,5,0,0,1-4.16-2A9.14,9.14,0,0,1,879.76,273.62Zm3.92.29a5.87,5.87,0,0,0,.71,3.16,2.33,2.33,0,0,0,2.09,1.1,2.61,2.61,0,0,0,2.56-1.53v-5.8a2.57,2.57,0,0,0-2.53-1.53Q883.68,269.31,883.68,273.91Z"/><path class="cls-4" d="M902.39,275.75a4.53,4.53,0,0,1,.76-2.54,10.65,10.65,0,0,1,2.81-2.59,14.55,14.55,0,0,1-1.38-2.22,5,5,0,0,1-.5-2.16,5.08,5.08,0,0,1,1.46-3.75,5.33,5.33,0,0,1,3.92-1.44,5.15,5.15,0,0,1,3.63,1.31,4.32,4.32,0,0,1,1.42,3.29,5.18,5.18,0,0,1-2.39,4.16l-1.52,1.1,3.4,3.95a7.42,7.42,0,0,0,.8-3.47h3.34a10.15,10.15,0,0,1-1.78,6.24l3,3.43h-4.45l-1-1.17a8.92,8.92,0,0,1-5,1.44,6.85,6.85,0,0,1-4.69-1.54A5.08,5.08,0,0,1,902.39,275.75Zm6.64,2.42a5,5,0,0,0,2.67-.78l-3.89-4.49-.29.2a3.1,3.1,0,0,0-1.2,2.42,2.58,2.58,0,0,0,.75,1.92A2.67,2.67,0,0,0,909,278.17Zm-1.44-12a4.67,4.67,0,0,0,1.19,2.56l1.05-.69a3.43,3.43,0,0,0,1.1-1,2.07,2.07,0,0,0,.31-1.16,1.63,1.63,0,0,0-.5-1.18,1.94,1.94,0,0,0-2.64,0A2,2,0,0,0,907.59,266.19Z"/><path class="cls-4" d="M932.39,274.1v7h-4.07V261.32H936a8.93,8.93,0,0,1,3.91.81,6.06,6.06,0,0,1,2.6,2.32,6.45,6.45,0,0,1,.91,3.4,5.69,5.69,0,0,1-2,4.58,8.25,8.25,0,0,1-5.5,1.67Zm0-3.29H936a3.54,3.54,0,0,0,2.46-.76,2.74,2.74,0,0,0,.85-2.17,3.23,3.23,0,0,0-.86-2.34,3.16,3.16,0,0,0-2.35-.93h-3.73Z"/><path class="cls-4" d="M954.21,270.06a10.82,10.82,0,0,0-1.41-.1,2.87,2.87,0,0,0-2.91,1.5v9.6H946V266.39h3.7l.11,1.75a3.63,3.63,0,0,1,3.27-2,4,4,0,0,1,1.22.18Z"/><path class="cls-4" d="M955,273.59a8.69,8.69,0,0,1,.84-3.89,6.21,6.21,0,0,1,2.42-2.65,7.1,7.1,0,0,1,3.67-.93,6.71,6.71,0,0,1,4.85,1.82,7.26,7.26,0,0,1,2.09,4.93l0,1a7.66,7.66,0,0,1-1.89,5.42,6.53,6.53,0,0,1-5,2,6.61,6.61,0,0,1-5.07-2,7.81,7.81,0,0,1-1.89-5.53Zm3.92.28a5.46,5.46,0,0,0,.79,3.2,2.83,2.83,0,0,0,4.47,0,6,6,0,0,0,.8-3.5,5.44,5.44,0,0,0-.8-3.17,2.57,2.57,0,0,0-2.25-1.13,2.54,2.54,0,0,0-2.22,1.12A6.05,6.05,0,0,0,958.92,273.87Z"/><path class="cls-4" d="M984.52,273.86a8.84,8.84,0,0,1-1.54,5.43,4.94,4.94,0,0,1-4.16,2,4.56,4.56,0,0,1-3.59-1.54v6.91h-3.92V266.39h3.63l.14,1.44a4.61,4.61,0,0,1,3.71-1.71,5,5,0,0,1,4.22,2,9,9,0,0,1,1.51,5.53Zm-3.92-.28a5.7,5.7,0,0,0-.73-3.16,2.35,2.35,0,0,0-2.11-1.11,2.56,2.56,0,0,0-2.53,1.41v6a2.6,2.6,0,0,0,2.56,1.45Q980.6,278.17,980.6,273.58Z"/><path class="cls-4" d="M993.69,281.33a7.19,7.19,0,0,1-5.25-2,7,7,0,0,1-2-5.27v-.38a8.82,8.82,0,0,1,.86-3.95,6.21,6.21,0,0,1,2.42-2.69,6.75,6.75,0,0,1,3.57-.94A6.07,6.07,0,0,1,998,268a7.71,7.71,0,0,1,1.73,5.38V275h-9.34a3.55,3.55,0,0,0,1.14,2.3,3.47,3.47,0,0,0,2.42.87,4.21,4.21,0,0,0,3.54-1.64l1.93,2.16a5.89,5.89,0,0,1-2.39,1.94A7.77,7.77,0,0,1,993.69,281.33Zm-.44-12.05a2.43,2.43,0,0,0-1.89.79,4,4,0,0,0-.93,2.26h5.45V272a3,3,0,0,0-.71-2A2.54,2.54,0,0,0,993.25,269.28Z"/><path class="cls-4" d="M1010.19,270.06a10.82,10.82,0,0,0-1.41-.1,2.87,2.87,0,0,0-2.91,1.5v9.6H1002V266.39h3.7l.11,1.75a3.62,3.62,0,0,1,3.27-2,4,4,0,0,1,1.22.18Z"/><path class="cls-4" d="M1017.45,262.78v3.61H1020v2.87h-2.51v7.33a1.71,1.71,0,0,0,.31,1.16,1.54,1.54,0,0,0,1.19.35,6.47,6.47,0,0,0,1.15-.09v3a8.19,8.19,0,0,1-2.37.35q-4.12,0-4.2-4.16v-7.91h-2.14v-2.87h2.14v-3.61Z"/><path class="cls-4" d="M1027.62,275.51l2.71-9.12h4.2l-5.9,16.95-.32.77A4.47,4.47,0,0,1,1024,287a6.26,6.26,0,0,1-1.74-.25v-3h.6a3.19,3.19,0,0,0,1.66-.34,2.19,2.19,0,0,0,.86-1.12l.46-1.21-5.14-14.71h4.22Z"/><path class="cls-4" d="M1054.42,273.63h2.24v3.16h-2.24v4.27h-3.92v-4.27h-8.09l-.18-2.47,8.23-13h4Zm-8.29,0h4.37v-7l-.26.45Z"/><path class="cls-4" d="M1072,272.9a10,10,0,0,1-1.69,6.26,6.77,6.77,0,0,1-9.9,0,9.71,9.71,0,0,1-1.75-6.1v-3.63q0-4.14,1.72-6.28a6.78,6.78,0,0,1,9.87,0,9.64,9.64,0,0,1,1.75,6.09Zm-3.92-4a7.18,7.18,0,0,0-.67-3.57,2.5,2.5,0,0,0-4.13-.06,6.77,6.77,0,0,0-.7,3.33v4.81a7.56,7.56,0,0,0,.66,3.59,2.24,2.24,0,0,0,2.11,1.17,2.19,2.19,0,0,0,2.07-1.12,7.38,7.38,0,0,0,.66-3.45Z"/><path class="cls-4" d="M1074.63,265.12a3.89,3.89,0,0,1,1.18-2.95,4.26,4.26,0,0,1,3.09-1.13,4.38,4.38,0,0,1,3.12,1.11,4,4,0,0,1,1.18,3v1a3.84,3.84,0,0,1-1.18,2.94,4.88,4.88,0,0,1-6.2,0,4,4,0,0,1-1.19-3Zm2.6,1a1.84,1.84,0,0,0,.47,1.31,1.6,1.6,0,0,0,1.23.49,1.52,1.52,0,0,0,1.21-.5,2,2,0,0,0,.44-1.34v-1a2,2,0,0,0-.44-1.32,1.59,1.59,0,0,0-1.24-.5,1.55,1.55,0,0,0-1.2.49,1.94,1.94,0,0,0-.47,1.38Zm2.47,13.42-1.91-1,9.64-15.43,1.91,1Zm4.37-3.36a3.84,3.84,0,0,1,1.19-3,4.87,4.87,0,0,1,6.2,0,4,4,0,0,1,1.19,3v1a3.86,3.86,0,0,1-1.17,2.93,4.26,4.26,0,0,1-3.1,1.12,4.33,4.33,0,0,1-3.13-1.12,3.93,3.93,0,0,1-1.18-3Zm2.6,1.06a1.79,1.79,0,0,0,.49,1.27,1.59,1.59,0,0,0,1.22.53q1.65,0,1.65-1.83v-1a1.84,1.84,0,0,0-.46-1.31,1.76,1.76,0,0,0-2.44,0,1.89,1.89,0,0,0-.46,1.35Z"/><path class="cls-4" d="M768,339.94a2.49,2.49,0,0,0-.61-1.77,5.54,5.54,0,0,0-2.1-1.21,24.76,24.76,0,0,1-2.55-1.11,7.78,7.78,0,0,1-1.83-1.26,5.13,5.13,0,0,1-1.2-1.67,5.71,5.71,0,0,1-.42-2.29,5.12,5.12,0,0,1,1.46-3.76,6.25,6.25,0,0,1,3.89-1.71v-2.9h2.17v2.95a5.68,5.68,0,0,1,3.76,2,6.63,6.63,0,0,1,1.35,4.31H768a3.69,3.69,0,0,0-.67-2.43,2.19,2.19,0,0,0-1.79-.81,2.27,2.27,0,0,0-1.72.63,2.38,2.38,0,0,0-.61,1.74,2.3,2.3,0,0,0,.59,1.66,6.66,6.66,0,0,0,2.22,1.27,22.3,22.3,0,0,1,2.66,1.23,7.12,7.12,0,0,1,1.76,1.3,4.92,4.92,0,0,1,1.1,1.65,5.55,5.55,0,0,1,.38,2.16,5.11,5.11,0,0,1-1.43,3.75,6.34,6.34,0,0,1-4,1.69v2.7h-2.16v-2.69a6.44,6.44,0,0,1-4.3-2,6.33,6.33,0,0,1-1.53-4.45h3.92a3.55,3.55,0,0,0,.77,2.47,2.76,2.76,0,0,0,2.2.86,2.69,2.69,0,0,0,1.88-.63A2.18,2.18,0,0,0,768,339.94Z"/><path class="cls-4" d="M789.84,328.69h-6v16.44h-4.07V328.69h-6v-3.3h16.07Z"/><path class="cls-4" d="M796.23,338.18v6.95h-4.07V325.39h7.7a9,9,0,0,1,3.92.82,6,6,0,0,1,2.59,2.31,6.42,6.42,0,0,1,.91,3.41,5.67,5.67,0,0,1-2,4.58,8.28,8.28,0,0,1-5.49,1.67Zm0-3.3h3.63a3.63,3.63,0,0,0,2.47-.75,2.78,2.78,0,0,0,.84-2.17,3.26,3.26,0,0,0-.85-2.35,3.19,3.19,0,0,0-2.36-.92h-3.73Z"/><path class="cls-4" d="M825.57,338.56a7,7,0,0,1-2.35,5,8.28,8.28,0,0,1-5.6,1.83,7.44,7.44,0,0,1-6-2.56,10.47,10.47,0,0,1-2.17-7v-1.2a11.84,11.84,0,0,1,1-5,7.56,7.56,0,0,1,2.87-3.33,8.95,8.95,0,0,1,9.83.67,7.51,7.51,0,0,1,2.42,5.14h-4.07a4.07,4.07,0,0,0-1.07-2.77,3.94,3.94,0,0,0-2.78-.86,3.48,3.48,0,0,0-3,1.46,8.22,8.22,0,0,0-1,4.52v1.49a8.74,8.74,0,0,0,1,4.68,3.38,3.38,0,0,0,3,1.47,4,4,0,0,0,2.82-.86,3.87,3.87,0,0,0,1.06-2.66Z"/><path class="cls-4" d="M847,337.07h-7.81v8.06h-4.07V325.39H848v3.3h-8.79v5.1H847Z"/><path class="cls-4" d="M850.08,326.67a1.94,1.94,0,0,1,.59-1.45,2.54,2.54,0,0,1,3.21,0,1.94,1.94,0,0,1,.59,1.45,1.92,1.92,0,0,1-.6,1.46,2.21,2.21,0,0,1-1.59.57,2.25,2.25,0,0,1-1.6-.57A1.92,1.92,0,0,1,850.08,326.67Zm4.16,18.46h-3.93V330.47h3.93Z"/><path class="cls-4" d="M861.08,330.47l.12,1.69a5.12,5.12,0,0,1,4.21-2,4.24,4.24,0,0,1,3.47,1.37,6.42,6.42,0,0,1,1.17,4.1v9.47h-3.92v-9.38a2.56,2.56,0,0,0-.54-1.81,2.44,2.44,0,0,0-1.8-.56,2.68,2.68,0,0,0-2.48,1.41v10.34h-3.92V330.47Z"/><path class="cls-4" d="M881.52,345.13a4.32,4.32,0,0,1-.39-1.31,4.75,4.75,0,0,1-3.7,1.59,5.24,5.24,0,0,1-3.58-1.25,4,4,0,0,1-1.41-3.15,4.15,4.15,0,0,1,1.73-3.58,8.52,8.52,0,0,1,5-1.26H881v-.84a2.37,2.37,0,0,0-.52-1.62,2.05,2.05,0,0,0-1.65-.61,2.32,2.32,0,0,0-1.55.47,1.63,1.63,0,0,0-.56,1.3h-3.92a3.92,3.92,0,0,1,.79-2.36,5.16,5.16,0,0,1,2.22-1.7,8.16,8.16,0,0,1,3.23-.62,6.38,6.38,0,0,1,4.3,1.37,4.77,4.77,0,0,1,1.6,3.83v6.36a6.84,6.84,0,0,0,.58,3.15v.23Zm-3.24-2.72a3.35,3.35,0,0,0,1.6-.39,2.45,2.45,0,0,0,1.08-1v-2.53H879.5c-2,0-3,.68-3.13,2l0,.23a1.56,1.56,0,0,0,.52,1.2A2,2,0,0,0,878.28,342.41Z"/><path class="cls-4" d="M891.51,330.47l.12,1.69a5.14,5.14,0,0,1,4.22-2,4.26,4.26,0,0,1,3.47,1.37,6.42,6.42,0,0,1,1.17,4.1v9.47h-3.92v-9.38a2.56,2.56,0,0,0-.54-1.81,2.47,2.47,0,0,0-1.81-.56,2.7,2.7,0,0,0-2.48,1.41v10.34h-3.91V330.47Z"/><path class="cls-4" d="M909.56,342.25a2.56,2.56,0,0,0,1.76-.6,2.08,2.08,0,0,0,.7-1.59h3.68a5,5,0,0,1-.82,2.74,5.43,5.43,0,0,1-2.18,1.92,6.82,6.82,0,0,1-3.07.69,6.39,6.39,0,0,1-5-2,7.94,7.94,0,0,1-1.81-5.53v-.26a7.84,7.84,0,0,1,1.8-5.41,6.31,6.31,0,0,1,5-2,6.19,6.19,0,0,1,4.41,1.57,5.53,5.53,0,0,1,1.69,4.17H912a2.67,2.67,0,0,0-.7-1.86,2.34,2.34,0,0,0-1.79-.72,2.39,2.39,0,0,0-2.07,1,5.85,5.85,0,0,0-.7,3.24V338a5.8,5.8,0,0,0,.7,3.26A2.39,2.39,0,0,0,909.56,342.25Z"/><path class="cls-4" d="M917.91,326.67a1.94,1.94,0,0,1,.59-1.45,2.53,2.53,0,0,1,3.2,0,2.06,2.06,0,0,1,0,2.91,2.52,2.52,0,0,1-3.19,0A1.92,1.92,0,0,1,917.91,326.67Zm4.16,18.46h-3.93V330.47h3.93Z"/><path class="cls-4" d="M933.8,345.13a4.61,4.61,0,0,1-.4-1.31,4.72,4.72,0,0,1-3.7,1.59,5.23,5.23,0,0,1-3.57-1.25,4,4,0,0,1-1.42-3.15,4.17,4.17,0,0,1,1.73-3.58,8.55,8.55,0,0,1,5-1.26h1.8v-.84a2.37,2.37,0,0,0-.52-1.62,2.05,2.05,0,0,0-1.65-.61,2.3,2.3,0,0,0-1.55.47,1.6,1.6,0,0,0-.56,1.3H925a3.92,3.92,0,0,1,.79-2.36,5.16,5.16,0,0,1,2.22-1.7,8.12,8.12,0,0,1,3.23-.62,6.39,6.39,0,0,1,4.3,1.37,4.77,4.77,0,0,1,1.59,3.83v6.36a7,7,0,0,0,.59,3.15v.23Zm-3.24-2.72a3.35,3.35,0,0,0,1.6-.39,2.51,2.51,0,0,0,1.08-1v-2.53h-1.46c-2,0-3,.68-3.13,2l0,.23a1.53,1.53,0,0,0,.52,1.2A2,2,0,0,0,930.56,342.41Z"/><path class="cls-4" d="M944.32,345.13h-3.93V324.31h3.93Z"/><path class="cls-4" d="M968.76,328.69h-6v16.44h-4.07V328.69h-6v-3.3h16.08Z"/><path class="cls-4" d="M978.18,334.14a11,11,0,0,0-1.41-.11,2.86,2.86,0,0,0-2.91,1.51v9.59h-3.92V330.47h3.7l.11,1.74a3.65,3.65,0,0,1,3.27-2,4,4,0,0,1,1.22.18Z"/><path class="cls-4" d="M988.16,345.13a4.32,4.32,0,0,1-.39-1.31,4.73,4.73,0,0,1-3.7,1.59,5.2,5.2,0,0,1-3.57-1.25,4,4,0,0,1-1.42-3.15,4.17,4.17,0,0,1,1.73-3.58,8.54,8.54,0,0,1,5-1.26h1.81v-.84a2.38,2.38,0,0,0-.53-1.62,2,2,0,0,0-1.64-.61,2.34,2.34,0,0,0-1.56.47,1.63,1.63,0,0,0-.56,1.3H979.4a4,4,0,0,1,.79-2.36,5.22,5.22,0,0,1,2.22-1.7,8.16,8.16,0,0,1,3.23-.62,6.42,6.42,0,0,1,4.31,1.37,4.77,4.77,0,0,1,1.59,3.83v6.36a7,7,0,0,0,.58,3.15v.23Zm-3.24-2.72a3.35,3.35,0,0,0,1.6-.39,2.53,2.53,0,0,0,1.09-1v-2.53h-1.47c-2,0-3,.68-3.13,2v.23a1.55,1.55,0,0,0,.51,1.2A2,2,0,0,0,984.92,342.41Z"/><path class="cls-4" d="M993.94,337.69a8.8,8.8,0,0,1,1.54-5.46,5,5,0,0,1,4.21-2,4.51,4.51,0,0,1,3.53,1.6v-7.48h3.94v20.82h-3.54l-.19-1.55a4.61,4.61,0,0,1-3.77,1.83,5,5,0,0,1-4.16-2A9.17,9.17,0,0,1,993.94,337.69Zm3.92.29a5.91,5.91,0,0,0,.71,3.17,2.36,2.36,0,0,0,2.09,1.1,2.61,2.61,0,0,0,2.56-1.54v-5.8a2.57,2.57,0,0,0-2.53-1.53Q997.85,333.38,997.86,338Z"/><path class="cls-4" d="M1010.17,326.67a1.9,1.9,0,0,1,.59-1.45,2.19,2.19,0,0,1,1.6-.57,2.22,2.22,0,0,1,1.6.57,2.06,2.06,0,0,1,0,2.91,2.25,2.25,0,0,1-1.6.57,2.21,2.21,0,0,1-1.59-.57A1.92,1.92,0,0,1,1010.17,326.67Zm4.16,18.46h-3.93V330.47h3.93Z"/><path class="cls-4" d="M1021.16,330.47l.12,1.69a5.14,5.14,0,0,1,4.22-2,4.27,4.27,0,0,1,3.47,1.37,6.42,6.42,0,0,1,1.17,4.1v9.47h-3.92v-9.38a2.56,2.56,0,0,0-.54-1.81,2.48,2.48,0,0,0-1.81-.56,2.7,2.7,0,0,0-2.48,1.41v10.34h-3.92V330.47Z"/><path class="cls-4" d="M1032.54,337.69a8.58,8.58,0,0,1,1.6-5.43,5.2,5.2,0,0,1,4.33-2.07,4.59,4.59,0,0,1,3.76,1.66l.16-1.38h3.55v14.18a6.31,6.31,0,0,1-.87,3.35,5.58,5.58,0,0,1-2.46,2.16,8.64,8.64,0,0,1-3.72.75,8,8,0,0,1-3.14-.64,5.71,5.71,0,0,1-2.32-1.66l1.74-2.39a4.59,4.59,0,0,0,3.55,1.64,3.35,3.35,0,0,0,2.42-.83,3.14,3.14,0,0,0,.87-2.37v-.79a4.5,4.5,0,0,1-3.56,1.54,5.19,5.19,0,0,1-4.28-2.07,8.6,8.6,0,0,1-1.63-5.49Zm3.91.29a5.37,5.37,0,0,0,.8,3.13,2.56,2.56,0,0,0,2.2,1.14,2.71,2.71,0,0,0,2.56-1.35v-6.18a2.72,2.72,0,0,0-2.53-1.34,2.59,2.59,0,0,0-2.22,1.15A6,6,0,0,0,1036.45,338Z"/><path class="cls-4" d="M1065.22,345.13h-3.92V330l-4.67,1.45V328.3l8.17-2.93h.42Z"/><path class="cls-4" d="M1084.92,337a10,10,0,0,1-1.69,6.27,6.77,6.77,0,0,1-9.9,0,9.73,9.73,0,0,1-1.75-6.1v-3.64c0-2.75.57-4.85,1.72-6.27a6.76,6.76,0,0,1,9.87,0,9.66,9.66,0,0,1,1.75,6.09Zm-3.92-4a7.22,7.22,0,0,0-.67-3.58,2.27,2.27,0,0,0-2.09-1.12,2.23,2.23,0,0,0-2,1.07,6.77,6.77,0,0,0-.7,3.33v4.8a7.56,7.56,0,0,0,.66,3.59,2.47,2.47,0,0,0,4.18.05,7.38,7.38,0,0,0,.66-3.45Z"/><path class="cls-4" d="M1087.51,329.19a3.9,3.9,0,0,1,1.18-2.95,4.85,4.85,0,0,1,6.21,0,4,4,0,0,1,1.18,3v1a3.84,3.84,0,0,1-1.18,2.94,4.87,4.87,0,0,1-6.2,0,4,4,0,0,1-1.19-3Zm2.6,1.05a1.82,1.82,0,0,0,.47,1.3,1.61,1.61,0,0,0,1.23.5,1.55,1.55,0,0,0,1.21-.5,2,2,0,0,0,.44-1.35v-1a1.92,1.92,0,0,0-.44-1.31,1.73,1.73,0,0,0-2.44,0,1.94,1.94,0,0,0-.47,1.38Zm2.47,13.42-1.91-1,9.64-15.43,1.91,1Zm4.37-3.37a3.81,3.81,0,0,1,1.19-2.94,4.33,4.33,0,0,1,3.09-1.12,4.41,4.41,0,0,1,3.11,1.1,4,4,0,0,1,1.19,3.05v1a3.89,3.89,0,0,1-1.17,2.94,4.88,4.88,0,0,1-6.23,0,3.91,3.91,0,0,1-1.18-3Zm2.6,1.06a1.81,1.81,0,0,0,.49,1.28,1.59,1.59,0,0,0,1.22.53c1.1,0,1.65-.61,1.65-1.84v-1a1.81,1.81,0,0,0-.46-1.3,1.74,1.74,0,0,0-2.44,0,1.89,1.89,0,0,0-.46,1.35Z"/><path class="cls-4" d="M768,404a2.49,2.49,0,0,0-.61-1.77,5.54,5.54,0,0,0-2.1-1.22,27.31,27.31,0,0,1-2.55-1.1,8.43,8.43,0,0,1-1.83-1.26,5.17,5.17,0,0,1-1.2-1.68,5.68,5.68,0,0,1-.42-2.29,5.09,5.09,0,0,1,1.46-3.75,6.15,6.15,0,0,1,3.89-1.71v-2.9h2.17v2.94a5.69,5.69,0,0,1,3.76,2,6.6,6.6,0,0,1,1.35,4.3H768a3.73,3.73,0,0,0-.67-2.43,2.19,2.19,0,0,0-1.79-.81,2.27,2.27,0,0,0-1.72.63,2.39,2.39,0,0,0-.61,1.75,2.29,2.29,0,0,0,.59,1.65,6.49,6.49,0,0,0,2.22,1.27,26,26,0,0,1,2.66,1.23,7.66,7.66,0,0,1,1.76,1.3,5.07,5.07,0,0,1,1.1,1.66,5.55,5.55,0,0,1,.38,2.16,5.08,5.08,0,0,1-1.43,3.74,6.35,6.35,0,0,1-4,1.7v2.69h-2.16v-2.68a6.53,6.53,0,0,1-4.3-2,6.36,6.36,0,0,1-1.53-4.46h3.92a3.58,3.58,0,0,0,.77,2.48,2.8,2.8,0,0,0,2.2.86,2.69,2.69,0,0,0,1.88-.63A2.19,2.19,0,0,0,768,404Z"/><path class="cls-4" d="M789.84,392.76h-6v16.45h-4.07V392.76h-6v-3.29h16.07Z"/><path class="cls-4" d="M796.23,402.25v7h-4.07V389.47h7.7a9,9,0,0,1,3.92.81,6,6,0,0,1,2.59,2.31,6.42,6.42,0,0,1,.91,3.41,5.66,5.66,0,0,1-2,4.58,8.22,8.22,0,0,1-5.49,1.67Zm0-3.29h3.63a3.58,3.58,0,0,0,2.47-.76,2.78,2.78,0,0,0,.84-2.17,3.06,3.06,0,0,0-3.21-3.27h-3.73Z"/><path class="cls-4" d="M825.57,402.63a7,7,0,0,1-2.35,5,8.28,8.28,0,0,1-5.6,1.83,7.41,7.41,0,0,1-6-2.56,10.46,10.46,0,0,1-2.17-7V398.7a11.76,11.76,0,0,1,1-5,7.46,7.46,0,0,1,2.87-3.33,8,8,0,0,1,4.33-1.16,8,8,0,0,1,5.5,1.83,7.49,7.49,0,0,1,2.42,5.14h-4.07a4.1,4.1,0,0,0-1.07-2.78,3.94,3.94,0,0,0-2.78-.86,3.48,3.48,0,0,0-3,1.46,8.22,8.22,0,0,0-1,4.52V400a8.69,8.69,0,0,0,1,4.68,3.37,3.37,0,0,0,3,1.48,4,4,0,0,0,2.82-.86,3.89,3.89,0,0,0,1.06-2.67Z"/><path class="cls-4" d="M835.15,409.21V389.47h6.92a9.07,9.07,0,0,1,5.45,1.38,4.69,4.69,0,0,1,1.86,4,4.4,4.4,0,0,1-.75,2.55,4.3,4.3,0,0,1-2.07,1.62,4.19,4.19,0,0,1,2.39,1.54,4.51,4.51,0,0,1,.87,2.82,5.22,5.22,0,0,1-1.81,4.31,8.25,8.25,0,0,1-5.18,1.49Zm4.07-11.47h3c2,0,3.08-.86,3.08-2.45a2.29,2.29,0,0,0-.78-1.94,4.12,4.12,0,0,0-2.46-.59h-2.85Zm0,2.87v5.33h3.49a3.4,3.4,0,0,0,2.24-.68,2.35,2.35,0,0,0,.81-1.89c0-1.81-.94-2.73-2.81-2.76Z"/><path class="cls-4" d="M861.4,407.72a4.92,4.92,0,0,1-4,1.76,4.62,4.62,0,0,1-3.6-1.36,5.76,5.76,0,0,1-1.27-4v-9.61h3.92V404c0,1.53.7,2.29,2.09,2.29a2.84,2.84,0,0,0,2.74-1.38v-10.4h3.93v14.67h-3.69Z"/><path class="cls-4" d="M876.1,405.16a1.28,1.28,0,0,0-.72-1.14,8.26,8.26,0,0,0-2.28-.74q-5.24-1.09-5.23-4.44a4,4,0,0,1,1.62-3.26,6.48,6.48,0,0,1,4.23-1.31,7.05,7.05,0,0,1,4.47,1.31,4.15,4.15,0,0,1,1.68,3.42H876a1.91,1.91,0,0,0-.54-1.39,2.3,2.3,0,0,0-1.7-.55,2.33,2.33,0,0,0-1.53.45,1.42,1.42,0,0,0-.54,1.14,1.21,1.21,0,0,0,.61,1.05,6.29,6.29,0,0,0,2.08.69,15.71,15.71,0,0,1,2.47.66q3.11,1.14,3.11,3.94a3.84,3.84,0,0,1-1.73,3.25,7.38,7.38,0,0,1-4.44,1.24,7.78,7.78,0,0,1-3.28-.66,5.53,5.53,0,0,1-2.24-1.8,4.19,4.19,0,0,1-.81-2.47h3.71a2.07,2.07,0,0,0,.77,1.59,3,3,0,0,0,1.93.56,2.79,2.79,0,0,0,1.7-.43A1.3,1.3,0,0,0,876.1,405.16Z"/><path class="cls-4" d="M882.4,390.74a2,2,0,0,1,.59-1.45,2.54,2.54,0,0,1,3.21,0,1.92,1.92,0,0,1,.59,1.45,1.94,1.94,0,0,1-.6,1.47,2.21,2.21,0,0,1-1.59.57,2.25,2.25,0,0,1-1.6-.57A1.94,1.94,0,0,1,882.4,390.74Zm4.16,18.47h-3.93V394.54h3.93Z"/><path class="cls-4" d="M893.4,394.54l.12,1.69a5.11,5.11,0,0,1,4.21-2,4.25,4.25,0,0,1,3.48,1.37,6.45,6.45,0,0,1,1.16,4.09v9.48h-3.92v-9.38a2.54,2.54,0,0,0-.54-1.81,2.4,2.4,0,0,0-1.8-.57,2.68,2.68,0,0,0-2.48,1.41v10.35h-3.92V394.54Z"/><path class="cls-4" d="M912.09,409.48a7.19,7.19,0,0,1-5.25-2,7,7,0,0,1-2-5.27v-.38a8.82,8.82,0,0,1,.86-4,6.21,6.21,0,0,1,2.42-2.69,6.75,6.75,0,0,1,3.57-.94,6.08,6.08,0,0,1,4.74,1.9,7.71,7.71,0,0,1,1.73,5.38v1.6h-9.35a3.61,3.61,0,0,0,1.15,2.3,3.46,3.46,0,0,0,2.42.87,4.24,4.24,0,0,0,3.54-1.64l1.92,2.16a5.79,5.79,0,0,1-2.38,1.94A7.81,7.81,0,0,1,912.09,409.48Zm-.45-12.05a2.45,2.45,0,0,0-1.89.79,4.05,4.05,0,0,0-.92,2.26h5.45v-.32a2.94,2.94,0,0,0-.71-2A2.54,2.54,0,0,0,911.64,397.43Z"/><path class="cls-4" d="M928.29,405.16a1.27,1.27,0,0,0-.71-1.14,8.26,8.26,0,0,0-2.28-.74q-5.24-1.09-5.24-4.44a4,4,0,0,1,1.62-3.26,6.51,6.51,0,0,1,4.24-1.31,7.09,7.09,0,0,1,4.47,1.31,4.17,4.17,0,0,1,1.67,3.42h-3.92a1.91,1.91,0,0,0-.54-1.39,2.28,2.28,0,0,0-1.69-.55,2.33,2.33,0,0,0-1.53.45,1.4,1.4,0,0,0-.55,1.14,1.22,1.22,0,0,0,.62,1.05,6.12,6.12,0,0,0,2.08.69,15.71,15.71,0,0,1,2.47.66q3.11,1.14,3.1,3.94a3.83,3.83,0,0,1-1.72,3.25,7.41,7.41,0,0,1-4.45,1.24,7.73,7.73,0,0,1-3.27-.66,5.53,5.53,0,0,1-2.24-1.8,4.14,4.14,0,0,1-.82-2.47h3.72a2,2,0,0,0,.77,1.59,3,3,0,0,0,1.93.56,2.81,2.81,0,0,0,1.7-.43A1.31,1.31,0,0,0,928.29,405.16Z"/><path class="cls-4" d="M942.57,405.16a1.28,1.28,0,0,0-.71-1.14,8.47,8.47,0,0,0-2.29-.74q-5.24-1.09-5.23-4.44a4,4,0,0,1,1.62-3.26,6.49,6.49,0,0,1,4.24-1.31,7,7,0,0,1,4.46,1.31,4.15,4.15,0,0,1,1.68,3.42h-3.92a1.91,1.91,0,0,0-.54-1.39,2.29,2.29,0,0,0-1.7-.55,2.33,2.33,0,0,0-1.53.45,1.42,1.42,0,0,0-.54,1.14,1.2,1.2,0,0,0,.62,1.05,6.12,6.12,0,0,0,2.08.69,15.55,15.55,0,0,1,2.46.66q3.11,1.14,3.11,3.94a3.83,3.83,0,0,1-1.72,3.25,7.41,7.41,0,0,1-4.45,1.24,7.7,7.7,0,0,1-3.27-.66,5.56,5.56,0,0,1-2.25-1.8,4.19,4.19,0,0,1-.81-2.47h3.71a2,2,0,0,0,.78,1.59,3,3,0,0,0,1.92.56,2.79,2.79,0,0,0,1.7-.43A1.3,1.3,0,0,0,942.57,405.16Z"/><path class="cls-4" d="M967.22,405.14h-7.14l-1.35,4.07H954.4l7.35-19.74h3.77l7.39,19.74h-4.32Zm-6-3.29h4.94l-2.48-7.39Z"/><path class="cls-4" d="M977.45,394.54l.12,1.69a5.13,5.13,0,0,1,4.22-2,4.24,4.24,0,0,1,3.47,1.37,6.39,6.39,0,0,1,1.17,4.09v9.48h-3.92v-9.38A2.54,2.54,0,0,0,982,398a2.44,2.44,0,0,0-1.81-.57,2.7,2.7,0,0,0-2.48,1.41v10.35h-3.92V394.54Z"/><path class="cls-4" d="M988.83,401.77a8.61,8.61,0,0,1,1.6-5.44,5.23,5.23,0,0,1,4.34-2.06,4.56,4.56,0,0,1,3.75,1.65l.16-1.38h3.56v14.18a6.31,6.31,0,0,1-.88,3.35,5.6,5.6,0,0,1-2.46,2.17,8.62,8.62,0,0,1-3.71.74,8,8,0,0,1-3.15-.64,5.62,5.62,0,0,1-2.32-1.66l1.74-2.39a4.56,4.56,0,0,0,3.55,1.64,3.35,3.35,0,0,0,2.43-.83,3.16,3.16,0,0,0,.86-2.37V408a4.52,4.52,0,0,1-3.56,1.53,5.2,5.2,0,0,1-4.28-2.07,8.58,8.58,0,0,1-1.63-5.48Zm3.92.29a5.39,5.39,0,0,0,.79,3.13,2.57,2.57,0,0,0,2.2,1.13A2.72,2.72,0,0,0,998.3,405V398.8a2.71,2.71,0,0,0-2.53-1.35,2.57,2.57,0,0,0-2.22,1.16A6,6,0,0,0,992.75,402.06Z"/><path class="cls-4" d="M1012,409.48a7.22,7.22,0,0,1-5.26-2,7,7,0,0,1-2-5.27v-.38a8.82,8.82,0,0,1,.85-4,6.27,6.27,0,0,1,2.42-2.69,6.77,6.77,0,0,1,3.57-.94,6.07,6.07,0,0,1,4.74,1.9,7.71,7.71,0,0,1,1.73,5.38v1.6h-9.34a3.65,3.65,0,0,0,1.14,2.3,3.47,3.47,0,0,0,2.42.87,4.24,4.24,0,0,0,3.54-1.64l1.93,2.16a5.89,5.89,0,0,1-2.39,1.94A7.73,7.73,0,0,1,1012,409.48Zm-.45-12.05a2.43,2.43,0,0,0-1.89.79,4.05,4.05,0,0,0-.93,2.26h5.45v-.32a2.89,2.89,0,0,0-.71-2A2.54,2.54,0,0,0,1011.55,397.43Z"/><path class="cls-4" d="M1024.39,409.21h-3.93V388.38h3.93Z"/><path class="cls-4" d="M1043.88,409.21H1040v-15.1l-4.68,1.45v-3.19l8.17-2.93h.42Z"/><path class="cls-4" d="M1063.58,401.05a10,10,0,0,1-1.69,6.26,6.77,6.77,0,0,1-9.9,0,9.71,9.71,0,0,1-1.75-6.1v-3.63q0-4.14,1.72-6.28a6.78,6.78,0,0,1,9.87,0,9.62,9.62,0,0,1,1.75,6.09Zm-3.92-4a7.15,7.15,0,0,0-.67-3.57,2.5,2.5,0,0,0-4.13-.06,6.77,6.77,0,0,0-.7,3.33v4.81a7.59,7.59,0,0,0,.66,3.59,2.24,2.24,0,0,0,2.11,1.17,2.18,2.18,0,0,0,2.07-1.13,7.33,7.33,0,0,0,.66-3.44Z"/><path class="cls-4" d="M1066.17,393.27a3.87,3.87,0,0,1,1.18-2.95,4.27,4.27,0,0,1,3.09-1.14,4.39,4.39,0,0,1,3.12,1.12,4,4,0,0,1,1.18,3v1a3.84,3.84,0,0,1-1.18,2.94,4.87,4.87,0,0,1-6.2,0,3.94,3.94,0,0,1-1.19-3Zm2.6,1a1.84,1.84,0,0,0,.47,1.31,1.6,1.6,0,0,0,1.23.49,1.52,1.52,0,0,0,1.21-.5,2,2,0,0,0,.44-1.34v-1a1.93,1.93,0,0,0-.44-1.32,1.59,1.59,0,0,0-1.24-.5,1.55,1.55,0,0,0-1.2.49,1.94,1.94,0,0,0-.47,1.38Zm2.47,13.42-1.91-1,9.64-15.43,1.91,1Zm4.37-3.36a3.84,3.84,0,0,1,1.19-2.95,4.87,4.87,0,0,1,6.2,0,4,4,0,0,1,1.19,3v1a3.86,3.86,0,0,1-1.17,2.93,4.26,4.26,0,0,1-3.1,1.12,4.34,4.34,0,0,1-3.13-1.13,3.91,3.91,0,0,1-1.18-3Zm2.6,1.06a1.79,1.79,0,0,0,.49,1.27,1.59,1.59,0,0,0,1.22.53q1.65,0,1.65-1.83v-1a1.84,1.84,0,0,0-.46-1.31,1.76,1.76,0,0,0-2.44,0,1.89,1.89,0,0,0-.46,1.35Z"/><path class="cls-4" d="M768,468.09a2.49,2.49,0,0,0-.61-1.77,5.54,5.54,0,0,0-2.1-1.21,24.76,24.76,0,0,1-2.55-1.11,7.78,7.78,0,0,1-1.83-1.26,5.13,5.13,0,0,1-1.2-1.67,5.71,5.71,0,0,1-.42-2.29,5.12,5.12,0,0,1,1.46-3.76,6.25,6.25,0,0,1,3.89-1.71v-2.9h2.17v2.94a5.73,5.73,0,0,1,3.76,2,6.63,6.63,0,0,1,1.35,4.31H768a3.74,3.74,0,0,0-.67-2.44,2.21,2.21,0,0,0-1.79-.8,2.27,2.27,0,0,0-1.72.63,2.38,2.38,0,0,0-.61,1.74,2.26,2.26,0,0,0,.59,1.65,6.65,6.65,0,0,0,2.22,1.28,22.3,22.3,0,0,1,2.66,1.23,7.12,7.12,0,0,1,1.76,1.3,4.92,4.92,0,0,1,1.1,1.65,5.55,5.55,0,0,1,.38,2.16,5.11,5.11,0,0,1-1.43,3.75,6.34,6.34,0,0,1-4,1.69v2.7h-2.16v-2.69a6.49,6.49,0,0,1-4.3-2,6.35,6.35,0,0,1-1.53-4.45h3.92a3.55,3.55,0,0,0,.77,2.47,2.76,2.76,0,0,0,2.2.86,2.69,2.69,0,0,0,1.88-.63A2.19,2.19,0,0,0,768,468.09Z"/><path class="cls-4" d="M789.84,456.84h-6v16.44h-4.07V456.84h-6v-3.3h16.07Z"/><path class="cls-4" d="M788.48,465.81a8.72,8.72,0,0,1,.84-3.89,6.07,6.07,0,0,1,2.42-2.64,7,7,0,0,1,3.66-.94,6.69,6.69,0,0,1,4.85,1.82,7.28,7.28,0,0,1,2.09,4.93l0,1a7.68,7.68,0,0,1-1.88,5.41,7.31,7.31,0,0,1-10.12,0,7.81,7.81,0,0,1-1.89-5.53Zm3.91.28a5.51,5.51,0,0,0,.79,3.2,2.81,2.81,0,0,0,4.47,0,5.93,5.93,0,0,0,.8-3.49,5.38,5.38,0,0,0-.8-3.18,2.78,2.78,0,0,0-4.47,0A6.16,6.16,0,0,0,792.39,466.09Z"/><path class="cls-4" d="M810.11,467.4l-1.41,1.41v4.47h-3.91V452.46h3.91V464l.76-1,3.76-4.41h4.7l-5.3,6.12,5.76,8.55h-4.5Z"/><path class="cls-4" d="M826.1,473.55a7.23,7.23,0,0,1-5.26-2,7,7,0,0,1-2-5.27v-.38a8.85,8.85,0,0,1,.85-3.95,6.33,6.33,0,0,1,2.42-2.69,6.87,6.87,0,0,1,3.57-.94,6.1,6.1,0,0,1,4.74,1.9,7.73,7.73,0,0,1,1.73,5.38v1.6h-9.34a3.7,3.7,0,0,0,1.14,2.31,3.47,3.47,0,0,0,2.42.87,4.22,4.22,0,0,0,3.54-1.65l1.93,2.16a5.92,5.92,0,0,1-2.39,1.95A7.87,7.87,0,0,1,826.1,473.55Zm-.45-12.05a2.43,2.43,0,0,0-1.89.79,4.16,4.16,0,0,0-.93,2.26h5.45v-.31a2.92,2.92,0,0,0-.7-2A2.54,2.54,0,0,0,825.65,461.5Z"/><path class="cls-4" d="M838,458.61l.12,1.7a5.14,5.14,0,0,1,4.22-2,4.27,4.27,0,0,1,3.47,1.37,6.42,6.42,0,0,1,1.17,4.1v9.47H843V463.9a2.56,2.56,0,0,0-.54-1.81,2.48,2.48,0,0,0-1.81-.56,2.7,2.7,0,0,0-2.48,1.41v10.34h-3.92V458.61Z"/><path class="cls-4" d="M869,465.22h-7.81v8.06h-4.06V453.54h12.85v3.3h-8.79v5.1H869Z"/><path class="cls-4" d="M871.13,465.81a8.72,8.72,0,0,1,.85-3.89,6.07,6.07,0,0,1,2.42-2.64,7,7,0,0,1,3.66-.94,6.69,6.69,0,0,1,4.85,1.82,7.28,7.28,0,0,1,2.09,4.93l0,1a7.68,7.68,0,0,1-1.88,5.41,7.31,7.31,0,0,1-10.12,0,7.82,7.82,0,0,1-1.9-5.53Zm3.92.28a5.51,5.51,0,0,0,.79,3.2,2.81,2.81,0,0,0,4.47,0,5.93,5.93,0,0,0,.8-3.49,5.38,5.38,0,0,0-.8-3.18,2.6,2.6,0,0,0-2.25-1.13,2.56,2.56,0,0,0-2.22,1.12A6.16,6.16,0,0,0,875.05,466.09Z"/><path class="cls-4" d="M896.23,471.79a4.89,4.89,0,0,1-4,1.76,4.64,4.64,0,0,1-3.6-1.35,5.79,5.79,0,0,1-1.27-4v-9.62h3.92v9.49c0,1.53.69,2.3,2.09,2.3a2.83,2.83,0,0,0,2.73-1.39v-10.4H900v14.67h-3.69Z"/><path class="cls-4" d="M906.59,458.61l.12,1.7a5.13,5.13,0,0,1,4.22-2,4.27,4.27,0,0,1,3.47,1.37,6.42,6.42,0,0,1,1.16,4.1v9.47h-3.92V463.9a2.56,2.56,0,0,0-.54-1.81,2.44,2.44,0,0,0-1.8-.56,2.7,2.7,0,0,0-2.48,1.41v10.34H902.9V458.61Z"/><path class="cls-4" d="M917.92,465.84a8.78,8.78,0,0,1,1.54-5.46,5,5,0,0,1,4.21-2,4.51,4.51,0,0,1,3.54,1.6v-7.48h3.93v20.82H927.6l-.19-1.56a4.6,4.6,0,0,1-3.77,1.83,5,5,0,0,1-4.15-2A9.08,9.08,0,0,1,917.92,465.84Zm3.92.29a5.81,5.81,0,0,0,.72,3.17,2.34,2.34,0,0,0,2.09,1.1,2.63,2.63,0,0,0,2.56-1.54v-5.8a2.59,2.59,0,0,0-2.54-1.53Q921.84,461.53,921.84,466.13Z"/><path class="cls-4" d="M940.93,473.55a7.19,7.19,0,0,1-5.25-2,7,7,0,0,1-2-5.27v-.38a8.85,8.85,0,0,1,.85-3.95,6.33,6.33,0,0,1,2.42-2.69,6.9,6.9,0,0,1,3.58-.94,6.1,6.1,0,0,1,4.73,1.9,7.68,7.68,0,0,1,1.73,5.38v1.6h-9.34a3.66,3.66,0,0,0,1.15,2.31,3.44,3.44,0,0,0,2.42.87,4.22,4.22,0,0,0,3.54-1.65l1.92,2.16a5.92,5.92,0,0,1-2.39,1.95A7.87,7.87,0,0,1,940.93,473.55Zm-.45-12.05a2.43,2.43,0,0,0-1.89.79,4.16,4.16,0,0,0-.93,2.26h5.45v-.31a2.92,2.92,0,0,0-.7-2A2.53,2.53,0,0,0,940.48,461.5Z"/><path class="cls-4" d="M957.43,462.29a11.13,11.13,0,0,0-1.41-.11,2.88,2.88,0,0,0-2.92,1.5v9.6h-3.91V458.61h3.7l.11,1.75a3.63,3.63,0,0,1,3.26-2,4,4,0,0,1,1.22.18Z"/><path class="cls-4" d="M967.26,469.23a1.25,1.25,0,0,0-.72-1.13,7.93,7.93,0,0,0-2.28-.74c-3.49-.73-5.23-2.22-5.23-4.45a4,4,0,0,1,1.62-3.26,6.54,6.54,0,0,1,4.23-1.31,7,7,0,0,1,4.47,1.32,4.12,4.12,0,0,1,1.68,3.41h-3.92a1.91,1.91,0,0,0-.54-1.39,2.91,2.91,0,0,0-3.23-.1,1.42,1.42,0,0,0-.54,1.14,1.19,1.19,0,0,0,.61,1,6.28,6.28,0,0,0,2.09.69,18.48,18.48,0,0,1,2.46.66q3.1,1.14,3.11,3.95a3.82,3.82,0,0,1-1.73,3.24,7.38,7.38,0,0,1-4.44,1.24,7.93,7.93,0,0,1-3.28-.65,5.47,5.47,0,0,1-2.24-1.81,4.17,4.17,0,0,1-.81-2.47h3.71a2.08,2.08,0,0,0,.77,1.6,3.07,3.07,0,0,0,1.93.55,2.86,2.86,0,0,0,1.7-.42A1.33,1.33,0,0,0,967.26,469.23Z"/><path class="cls-4" d="M989.86,473.28h-3.92v-15.1l-4.68,1.45v-3.19l8.18-2.92h.42Z"/><path class="cls-4" d="M1009.56,465.12a10,10,0,0,1-1.7,6.26,5.9,5.9,0,0,1-5,2.17,6,6,0,0,1-4.94-2.12,9.74,9.74,0,0,1-1.74-6.11v-3.63q0-4.14,1.71-6.28a6.79,6.79,0,0,1,9.88,0,9.71,9.71,0,0,1,1.75,6.1Zm-3.92-4a7.34,7.34,0,0,0-.67-3.58,2.27,2.27,0,0,0-2.1-1.12,2.23,2.23,0,0,0-2,1.07,6.77,6.77,0,0,0-.7,3.33v4.8a7.56,7.56,0,0,0,.66,3.59,2.25,2.25,0,0,0,2.11,1.18,2.19,2.19,0,0,0,2.07-1.13,7.36,7.36,0,0,0,.67-3.45Z"/><path class="cls-4" d="M1012.15,457.34a3.9,3.9,0,0,1,1.18-2.95,4.83,4.83,0,0,1,6.2,0,4,4,0,0,1,1.18,3v1a3.87,3.87,0,0,1-1.18,2.95,4.3,4.3,0,0,1-3.09,1.11,4.38,4.38,0,0,1-3.11-1.12,4,4,0,0,1-1.18-3Zm2.6,1a1.79,1.79,0,0,0,.47,1.31,1.61,1.61,0,0,0,1.22.5,1.53,1.53,0,0,0,1.21-.51,1.92,1.92,0,0,0,.45-1.34v-1a1.92,1.92,0,0,0-.45-1.32,1.74,1.74,0,0,0-2.44,0,1.93,1.93,0,0,0-.46,1.37Zm2.47,13.43-1.92-1,9.64-15.42,1.92,1Zm4.36-3.37a3.88,3.88,0,0,1,1.19-2.95,4.91,4.91,0,0,1,6.21,0,4,4,0,0,1,1.18,3v1a3.92,3.92,0,0,1-1.16,2.94,4.92,4.92,0,0,1-6.24,0,3.92,3.92,0,0,1-1.18-3Zm2.6,1.06a1.82,1.82,0,0,0,.49,1.27,1.57,1.57,0,0,0,1.22.53c1.11,0,1.66-.61,1.66-1.83v-1a1.88,1.88,0,0,0-.46-1.31,1.6,1.6,0,0,0-1.22-.49,1.57,1.57,0,0,0-1.22.49,1.9,1.9,0,0,0-.47,1.35Z"/><path class="cls-4" d="M1033.06,471.36a1.94,1.94,0,0,1,.64-1.52,2.21,2.21,0,0,1,1.57-.58,2.25,2.25,0,0,1,1.6.58,2.12,2.12,0,0,1,0,3,2.27,2.27,0,0,1-1.6.57,2.24,2.24,0,0,1-1.58-.57A2,2,0,0,1,1033.06,471.36Z"/><circle class="cls-1" cx="725.12" cy="272.89" r="9.4"/><circle class="cls-5" cx="725.12" cy="338.19" r="9.4"/><circle class="cls-6" cx="725.12" cy="403.49" r="9.4"/><circle class="cls-7" cx="725.12" cy="468.79" r="9.4"/><path class="cls-3" d="M413.17,340.89v-224c123.7,0,224,100.28,224,224a224,224,0,0,1-11,69.21l-213-69.21h0"/><g class="cls-8"><path class="cls-9" d="M511.51,245.46l2.24-.3a4.93,4.93,0,0,0,1.32,2.75,3.21,3.21,0,0,0,2.26.85,3.61,3.61,0,0,0,2.67-1.1,3.7,3.7,0,0,0,1.1-2.72,3.46,3.46,0,0,0-1-2.55,3.5,3.5,0,0,0-2.57-1,6.67,6.67,0,0,0-1.59.24l.25-2,.36,0a4.65,4.65,0,0,0,2.59-.75,2.57,2.57,0,0,0,1.14-2.31,2.74,2.74,0,0,0-.83-2,3,3,0,0,0-2.16-.81,3,3,0,0,0-2.18.82,4.1,4.1,0,0,0-1.12,2.47l-2.25-.4a5.79,5.79,0,0,1,1.87-3.5,5.44,5.44,0,0,1,3.63-1.24,6.09,6.09,0,0,1,2.76.64,4.62,4.62,0,0,1,1.92,1.76,4.44,4.44,0,0,1,.67,2.35,3.83,3.83,0,0,1-.64,2.16,4.3,4.3,0,0,1-1.88,1.55,4.28,4.28,0,0,1,2.52,1.55,4.73,4.73,0,0,1,.9,2.95,5.37,5.37,0,0,1-1.75,4.06,6.12,6.12,0,0,1-4.41,1.66,5.72,5.72,0,0,1-4-1.43A5.54,5.54,0,0,1,511.51,245.46Z"/><path class="cls-9" d="M525.7,241.27a16.92,16.92,0,0,1,.66-5.22,6.5,6.5,0,0,1,2-3,5,5,0,0,1,3.31-1.08,5.46,5.46,0,0,1,2.58.59,5,5,0,0,1,1.83,1.71,9.17,9.17,0,0,1,1.14,2.72,18.32,18.32,0,0,1,.41,4.32,16.83,16.83,0,0,1-.66,5.2,6.45,6.45,0,0,1-2,3.05,5.56,5.56,0,0,1-7.47-.81C526.3,247.18,525.7,244.71,525.7,241.27Zm2.3,0c0,3,.36,5,1.06,6a3,3,0,0,0,5.2,0c.7-1,1-3,1-6s-.35-5-1-6a3.15,3.15,0,0,0-2.63-1.48,2.89,2.89,0,0,0-2.47,1.31Q528,236.77,528,241.27Z"/><path class="cls-9" d="M540.33,236.4a5.58,5.58,0,0,1,1-3.33,3.29,3.29,0,0,1,2.86-1.37,3.72,3.72,0,0,1,2.85,1.22,6.26,6.26,0,0,1,0,7.19,3.69,3.69,0,0,1-2.82,1.25,3.57,3.57,0,0,1-2.76-1.23A5.45,5.45,0,0,1,540.33,236.4Zm3.9-3.16a1.67,1.67,0,0,0-1.39.73,4.54,4.54,0,0,0-.56,2.65,4.09,4.09,0,0,0,.57,2.48,1.67,1.67,0,0,0,1.38.71,1.69,1.69,0,0,0,1.4-.72,4.53,4.53,0,0,0,.56-2.64,4.19,4.19,0,0,0-.56-2.49A1.72,1.72,0,0,0,544.23,233.24Zm0,17.72,10-19.26h1.83L546.1,251Zm7.91-5a5.61,5.61,0,0,1,1-3.34A3.33,3.33,0,0,1,556,241.3a3.69,3.69,0,0,1,2.85,1.23,6.24,6.24,0,0,1,0,7.18A3.64,3.64,0,0,1,556,251a3.55,3.55,0,0,1-2.77-1.24A5.47,5.47,0,0,1,552.15,246Zm3.92-3.16a1.72,1.72,0,0,0-1.41.73,4.58,4.58,0,0,0-.55,2.65,4.07,4.07,0,0,0,.56,2.47,1.67,1.67,0,0,0,1.38.73,1.7,1.7,0,0,0,1.42-.73,4.54,4.54,0,0,0,.55-2.64,4.12,4.12,0,0,0-.56-2.49A1.7,1.7,0,0,0,556.07,242.84Z"/></g><path class="cls-7" d="M413.17,340.89,281.52,159.69a224,224,0,0,1,131.65-42.78v224h0"/><path class="cls-9" d="M352.75,176.9H350.5V162.6a11.77,11.77,0,0,1-2.12,1.54A15,15,0,0,1,346,165.3v-2.17A13.43,13.43,0,0,0,349.3,161a8.46,8.46,0,0,0,2-2.45h1.45Z"/><path class="cls-9" d="M358.5,167.88a16.92,16.92,0,0,1,.66-5.22,6.5,6.5,0,0,1,2-3,5,5,0,0,1,3.31-1.08,5.46,5.46,0,0,1,2.58.59,5,5,0,0,1,1.83,1.71,9.44,9.44,0,0,1,1.14,2.72,18.32,18.32,0,0,1,.41,4.32,16.83,16.83,0,0,1-.66,5.2,6.45,6.45,0,0,1-2,3,5.57,5.57,0,0,1-7.48-.81Q358.5,173,358.5,167.88Zm2.3,0c0,3,.35,5,1.06,6a3,3,0,0,0,5.2,0c.7-1,1.05-3,1.05-6s-.35-5-1.05-6a3.16,3.16,0,0,0-2.63-1.48,2.89,2.89,0,0,0-2.47,1.31Q360.81,163.38,360.8,167.88Z"/><path class="cls-9" d="M373.12,163a5.52,5.52,0,0,1,1-3.33,3.29,3.29,0,0,1,2.86-1.37,3.75,3.75,0,0,1,2.85,1.22,6.28,6.28,0,0,1,0,7.19A3.65,3.65,0,0,1,377,168a3.54,3.54,0,0,1-2.76-1.23A5.45,5.45,0,0,1,373.12,163Zm3.91-3.16a1.67,1.67,0,0,0-1.39.73,4.54,4.54,0,0,0-.56,2.65,4.18,4.18,0,0,0,.56,2.48,1.72,1.72,0,0,0,2.79,0,4.53,4.53,0,0,0,.56-2.64,4.11,4.11,0,0,0-.57-2.49A1.7,1.7,0,0,0,377,159.85Zm0,17.72,10-19.26h1.82l-10,19.26Zm7.91-5a5.61,5.61,0,0,1,1-3.34,3.33,3.33,0,0,1,2.87-1.36,3.69,3.69,0,0,1,2.85,1.23,5.17,5.17,0,0,1,1.13,3.61,5.12,5.12,0,0,1-1.14,3.57,3.65,3.65,0,0,1-2.83,1.25,3.54,3.54,0,0,1-2.76-1.24A5.47,5.47,0,0,1,385,172.61Zm3.91-3.15a1.7,1.7,0,0,0-1.4.72,4.6,4.6,0,0,0-.55,2.66,4.05,4.05,0,0,0,.56,2.46,1.67,1.67,0,0,0,1.38.73,1.71,1.71,0,0,0,1.42-.73,4.54,4.54,0,0,0,.55-2.64,4.19,4.19,0,0,0-.56-2.49A1.69,1.69,0,0,0,388.86,169.46Z"/><path class="cls-6" d="M413.17,340.89l-213-69.21a223.94,223.94,0,0,1,81.36-112l131.65,181.2h0"/><g class="cls-8"><path class="cls-9" d="M263.48,244.15h-2.24v-14.3a12,12,0,0,1-2.13,1.55,15.83,15.83,0,0,1-2.36,1.16v-2.18a13.33,13.33,0,0,0,3.29-2.14,8.43,8.43,0,0,0,2-2.44h1.44Z"/><path class="cls-9" d="M269.23,235.14a16.59,16.59,0,0,1,.67-5.22,6.4,6.4,0,0,1,2-3,5,5,0,0,1,3.31-1.07,5.34,5.34,0,0,1,2.58.59,4.85,4.85,0,0,1,1.84,1.71,9.05,9.05,0,0,1,1.13,2.72,17.69,17.69,0,0,1,.41,4.32,16.8,16.8,0,0,1-.66,5.19,6.54,6.54,0,0,1-2,3.06,5.09,5.09,0,0,1-3.33,1.08,5,5,0,0,1-4.15-1.9Q269.22,240.29,269.23,235.14Zm2.31,0q0,4.5,1,6a3,3,0,0,0,5.2,0c.71-1,1.06-3,1.06-6s-.35-5-1.06-6a3.12,3.12,0,0,0-2.62-1.49A2.88,2.88,0,0,0,272.7,229Q271.55,230.64,271.54,235.14Z"/><path class="cls-9" d="M283.86,230.26a5.56,5.56,0,0,1,1-3.33,3.3,3.3,0,0,1,2.85-1.37,3.69,3.69,0,0,1,2.85,1.23,6.24,6.24,0,0,1,0,7.18,3.64,3.64,0,0,1-2.81,1.25A3.57,3.57,0,0,1,285,234,5.48,5.48,0,0,1,283.86,230.26Zm3.9-3.15a1.7,1.7,0,0,0-1.39.72,4.6,4.6,0,0,0-.55,2.66,4.14,4.14,0,0,0,.56,2.47,1.7,1.7,0,0,0,2.79,0,4.54,4.54,0,0,0,.55-2.64,4.12,4.12,0,0,0-.56-2.49A1.69,1.69,0,0,0,287.76,227.11Zm0,17.72,10-19.27h1.82l-10,19.27Zm7.9-5a5.52,5.52,0,0,1,1-3.33,3.32,3.32,0,0,1,2.87-1.37,3.71,3.71,0,0,1,2.85,1.23,5.17,5.17,0,0,1,1.13,3.61,5.06,5.06,0,0,1-1.15,3.57,3.65,3.65,0,0,1-2.82,1.26,3.55,3.55,0,0,1-2.76-1.24A5.45,5.45,0,0,1,295.68,239.86Zm3.92-3.15a1.69,1.69,0,0,0-1.4.72,4.58,4.58,0,0,0-.56,2.66,4.18,4.18,0,0,0,.56,2.47,1.72,1.72,0,0,0,2.8,0,4.59,4.59,0,0,0,.56-2.65,4.13,4.13,0,0,0-.56-2.48A1.72,1.72,0,0,0,299.6,236.71Z"/></g><path class="cls-5" d="M413.17,340.89l-213,69.21a223.91,223.91,0,0,1,0-138.42l213,69.21h0"/><g class="cls-8"><path class="cls-9" d="M224.66,349.83h-2.24v-14.3a11.53,11.53,0,0,1-2.13,1.54,13.73,13.73,0,0,1-2.36,1.16v-2.17a13.63,13.63,0,0,0,3.29-2.14,8.46,8.46,0,0,0,2-2.45h1.44Z"/><path class="cls-9" d="M230.41,340.81a16.48,16.48,0,0,1,.67-5.21,6.47,6.47,0,0,1,2-3.05,5,5,0,0,1,3.31-1.08,5.36,5.36,0,0,1,2.59.6,4.88,4.88,0,0,1,1.83,1.7,9.28,9.28,0,0,1,1.13,2.72,17.8,17.8,0,0,1,.41,4.32,16.83,16.83,0,0,1-.66,5.2,6.46,6.46,0,0,1-2,3.05,5.09,5.09,0,0,1-3.33,1.08,5,5,0,0,1-4.15-1.89C231,346.73,230.41,344.25,230.41,340.81Zm2.31,0c0,3,.35,5,1.05,6a3,3,0,0,0,5.2,0c.71-1,1.06-3,1.06-6s-.35-5-1.06-6a3.12,3.12,0,0,0-2.62-1.49,2.88,2.88,0,0,0-2.47,1.31C233.11,335.76,232.72,337.81,232.72,340.81Z"/><path class="cls-9" d="M245,335.94a5.52,5.52,0,0,1,1-3.33,3.27,3.27,0,0,1,2.85-1.37,3.69,3.69,0,0,1,2.85,1.23,6.24,6.24,0,0,1,0,7.18,3.67,3.67,0,0,1-2.81,1.25,3.54,3.54,0,0,1-2.76-1.23A5.45,5.45,0,0,1,245,335.94Zm3.91-3.16a1.69,1.69,0,0,0-1.4.73,4.56,4.56,0,0,0-.55,2.65,4.15,4.15,0,0,0,.56,2.48,1.7,1.7,0,0,0,2.79,0,4.54,4.54,0,0,0,.55-2.64,4.12,4.12,0,0,0-.56-2.49A1.7,1.7,0,0,0,249,332.78Zm0,17.72,10-19.26h1.82l-10,19.26Zm7.9-5a5.52,5.52,0,0,1,1-3.33,3.3,3.3,0,0,1,2.87-1.37,3.69,3.69,0,0,1,2.85,1.23,5.17,5.17,0,0,1,1.13,3.61,5.12,5.12,0,0,1-1.14,3.57,3.68,3.68,0,0,1-2.83,1.25,3.53,3.53,0,0,1-2.76-1.24A5.4,5.4,0,0,1,256.86,345.54Zm3.92-3.15a1.69,1.69,0,0,0-1.4.72,4.58,4.58,0,0,0-.56,2.66,4.18,4.18,0,0,0,.56,2.47,1.72,1.72,0,0,0,2.8,0,4.59,4.59,0,0,0,.56-2.65,4.19,4.19,0,0,0-.56-2.49A1.73,1.73,0,0,0,260.78,342.39Z"/></g><path class="cls-1" d="M413.17,340.89l213,69.21C588,527.75,461.61,592.13,344,553.91A224,224,0,0,1,200.16,410.1l213-69.21h0"/><g class="cls-8"><path class="cls-9" d="M407.68,535v-4.38h-7.94v-2l8.35-11.85h1.83v11.85h2.47v2h-2.47V535Zm0-6.43v-8.25L402,528.59Z"/><path class="cls-9" d="M414.69,526a16.92,16.92,0,0,1,.66-5.22,6.59,6.59,0,0,1,2-3,5.08,5.08,0,0,1,3.31-1.07,5.46,5.46,0,0,1,2.58.59,5,5,0,0,1,1.83,1.71,9.44,9.44,0,0,1,1.14,2.72,18.32,18.32,0,0,1,.41,4.32,16.83,16.83,0,0,1-.66,5.2,6.5,6.5,0,0,1-2,3,5.57,5.57,0,0,1-7.48-.81C415.29,531.91,414.69,529.44,414.69,526Zm2.3,0c0,3,.35,5,1.06,6a3,3,0,0,0,5.2,0c.7-1,1.05-3,1.05-6s-.35-5-1.05-6a3.14,3.14,0,0,0-2.63-1.48,2.89,2.89,0,0,0-2.47,1.31Q417,521.5,417,526Z"/><path class="cls-9" d="M429.31,521.13a5.52,5.52,0,0,1,1-3.33,3.29,3.29,0,0,1,2.86-1.37,3.71,3.71,0,0,1,2.84,1.22,6.26,6.26,0,0,1,0,7.19,3.67,3.67,0,0,1-2.81,1.25,3.54,3.54,0,0,1-2.76-1.23A5.45,5.45,0,0,1,429.31,521.13Zm3.91-3.16a1.69,1.69,0,0,0-1.39.72,4.6,4.6,0,0,0-.56,2.66,4.18,4.18,0,0,0,.56,2.48,1.73,1.73,0,0,0,1.39.71,1.7,1.7,0,0,0,1.4-.72,4.53,4.53,0,0,0,.56-2.64,4.11,4.11,0,0,0-.57-2.49A1.7,1.7,0,0,0,433.22,518Zm0,17.72,10-19.26h1.82l-10,19.26Zm7.91-5a5.61,5.61,0,0,1,1-3.34A3.33,3.33,0,0,1,445,526a3.69,3.69,0,0,1,2.85,1.23,6.24,6.24,0,0,1,0,7.18,3.65,3.65,0,0,1-2.83,1.25,3.54,3.54,0,0,1-2.76-1.24A5.42,5.42,0,0,1,441.14,530.73Zm3.91-3.16a1.71,1.71,0,0,0-1.4.73,4.58,4.58,0,0,0-.55,2.65,4.07,4.07,0,0,0,.56,2.47,1.67,1.67,0,0,0,1.38.73,1.71,1.71,0,0,0,1.42-.73,4.54,4.54,0,0,0,.55-2.64,4.19,4.19,0,0,0-.56-2.49A1.7,1.7,0,0,0,445.05,527.57Z"/></g><circle class="cls-9" cx="413.17" cy="340.92" r="83.06"/><path class="cls-10" d="M400.06,386c-3-1-4.06-3.17-3.94-6.32.18-5.1,0-10.21.05-15.32,0-3.71,1.61-5.33,5.41-5.36,5,0,9.94-.07,14.91,0,1.8,0,2.43-.59,2.36-2.37-.11-2.88-.12-5.76,0-8.63.07-1.85-.7-2.33-2.42-2.32q-15.89.07-31.78,0c-1.48,0-2,.42-2,1.94.07,5.18,0,10.36,0,15.54,0,3.17-1.71,5.07-4.54,5.12-3,.05-4.89-1.83-4.92-5-.05-5-.11-10.07,0-15.1.05-2-.64-2.71-2.59-2.48a15.24,15.24,0,0,1-3,0,4.54,4.54,0,0,1-4.41-4.87,4.46,4.46,0,0,1,4.59-4.43c.87,0,1.73,0,2.6,0,2.78,0,2.78,0,2.78-2.89,0-3.38,0-6.76,0-10.14,0-3.1,2.07-5.14,4.92-5.06s4.53,2.06,4.54,5.18c0,3.31,0,6.62,0,9.93,0,3,0,3,3.09,3H422.1c4.53,0,6,1.53,6,6.08q0,10.25,0,20.5c0,3.6-1.66,5.28-5.27,5.3-5,0-9.94.08-14.91,0-1.83,0-2.59.39-2.48,2.38.17,2.87-.09,5.76.08,8.63.2,3.14-.79,5.45-3.77,6.74Z"/><path class="cls-1" d="M446.92,368.27c-3.68,0-7.35,0-11,0-3.31,0-5.07-1.79-5.08-5.06q0-10.89,0-21.77c0-3.2,1.85-5,5.12-5q11,0,22,0c2.93,0,5,1.87,5.13,4.45a4.85,4.85,0,0,1-5,4.84c-5.18.09-10.36.08-15.55,0-1.69,0-2.32.57-2.28,2.24q.12,4.41,0,8.84c-.05,1.71.66,2.23,2.32,2.2,4.75-.09,9.5,0,14.25,0a10.82,10.82,0,0,1,2.35.21,4.73,4.73,0,0,1,3.92,4.93,4.66,4.66,0,0,1-4.73,4.15c-3.81.06-7.63,0-11.44,0Z"/><path class="cls-11" d="M403.8,303.28a10.06,10.06,0,0,1,.86,4.07,10,10,0,0,1-.44,3,4.09,4.09,0,0,0,5,3.25c.27-.06.54-.14.81-.22,2.87-.78,5.15.29,5.89,2.76s-.61,4.5-3.52,5.44c-2.18.7-2.95,2.09-2.28,4.35.36,1.23.3,2.22-1,2.79a1.6,1.6,0,0,1-2.16-.76c-.64-1.1-.15-1.93.81-2.68,2.09-1.65,2.26-3,.69-5.16a5.84,5.84,0,0,1-1-2.91,4.21,4.21,0,0,0-4.82-3.77,10,10,0,1,1-1.08-13.31,2.1,2.1,0,0,0,3.28-2s0-.05,0-.07a7.25,7.25,0,1,1,2.1,3h0a1.91,1.91,0,0,0-2.19.19A2.08,2.08,0,0,0,403.8,303.28Z"/></svg>